<mxfile host="app.diagrams.net" agent="Mozilla/5.0 (Windows NT 10.0; Win64; x64) AppleWebKit/537.36 (KHTML, like Gecko) Chrome/129.0.0.0 Safari/537.36" version="24.7.17">
  <diagram name="Page-1" id="bf9tP8nl2IJK0LXSPw_B">
    <mxGraphModel dx="1434" dy="1846" grid="1" gridSize="10" guides="1" tooltips="1" connect="1" arrows="1" fold="1" page="1" pageScale="1" pageWidth="850" pageHeight="1100" math="0" shadow="0">
      <root>
        <mxCell id="0" />
        <mxCell id="1" parent="0" />
        <mxCell id="kpZ2RrCebFpIn6AVhL3d-31" value="" style="ellipse;whiteSpace=wrap;html=1;" vertex="1" parent="1">
          <mxGeometry x="370" y="380" width="370" height="30" as="geometry" />
        </mxCell>
        <mxCell id="kpZ2RrCebFpIn6AVhL3d-32" value="" style="ellipse;whiteSpace=wrap;html=1;" vertex="1" parent="1">
          <mxGeometry x="370" y="335" width="320" height="30" as="geometry" />
        </mxCell>
        <mxCell id="kpZ2RrCebFpIn6AVhL3d-33" value="" style="ellipse;whiteSpace=wrap;html=1;" vertex="1" parent="1">
          <mxGeometry x="370" y="290" width="310" height="30" as="geometry" />
        </mxCell>
        <mxCell id="kpZ2RrCebFpIn6AVhL3d-34" value="" style="ellipse;whiteSpace=wrap;html=1;" vertex="1" parent="1">
          <mxGeometry x="370" y="240" width="300" height="30" as="geometry" />
        </mxCell>
        <mxCell id="kpZ2RrCebFpIn6AVhL3d-35" value="" style="ellipse;whiteSpace=wrap;html=1;" vertex="1" parent="1">
          <mxGeometry x="360" y="190" width="260" height="30" as="geometry" />
        </mxCell>
        <mxCell id="kpZ2RrCebFpIn6AVhL3d-36" value="" style="ellipse;whiteSpace=wrap;html=1;" vertex="1" parent="1">
          <mxGeometry x="360" y="140" width="290" height="30" as="geometry" />
        </mxCell>
        <mxCell id="kpZ2RrCebFpIn6AVhL3d-37" value="" style="ellipse;whiteSpace=wrap;html=1;" vertex="1" parent="1">
          <mxGeometry x="360" y="90" width="280" height="30" as="geometry" />
        </mxCell>
        <mxCell id="kpZ2RrCebFpIn6AVhL3d-38" value="" style="ellipse;whiteSpace=wrap;html=1;" vertex="1" parent="1">
          <mxGeometry x="360" y="40" width="290" height="30" as="geometry" />
        </mxCell>
        <mxCell id="kpZ2RrCebFpIn6AVhL3d-39" value="" style="ellipse;whiteSpace=wrap;html=1;" vertex="1" parent="1">
          <mxGeometry x="360" y="-20" width="210" height="50" as="geometry" />
        </mxCell>
        <mxCell id="kpZ2RrCebFpIn6AVhL3d-30" value="" style="ellipse;whiteSpace=wrap;html=1;" vertex="1" parent="1">
          <mxGeometry x="370" y="425" width="380" height="30" as="geometry" />
        </mxCell>
        <mxCell id="kpZ2RrCebFpIn6AVhL3d-1" value="User" style="shape=umlActor;verticalLabelPosition=bottom;verticalAlign=top;html=1;outlineConnect=0;" vertex="1" parent="1">
          <mxGeometry x="150" y="175" width="30" height="60" as="geometry" />
        </mxCell>
        <mxCell id="kpZ2RrCebFpIn6AVhL3d-2" value="User wants to find a source for an academic paper" style="text;html=1;align=center;verticalAlign=middle;whiteSpace=wrap;rounded=0;" vertex="1" parent="1">
          <mxGeometry x="390" y="-20" width="150" height="50" as="geometry" />
        </mxCell>
        <mxCell id="kpZ2RrCebFpIn6AVhL3d-4" value="&lt;span style=&quot;text-wrap: nowrap;&quot;&gt;User wants to research a story for a hobby&lt;/span&gt;" style="text;html=1;align=center;verticalAlign=middle;whiteSpace=wrap;rounded=0;" vertex="1" parent="1">
          <mxGeometry x="460" y="40" width="115" height="30" as="geometry" />
        </mxCell>
        <mxCell id="kpZ2RrCebFpIn6AVhL3d-5" value="User wants to lookup an ongoing story" style="text;html=1;align=center;verticalAlign=middle;resizable=0;points=[];autosize=1;strokeColor=none;fillColor=none;" vertex="1" parent="1">
          <mxGeometry x="390" y="90" width="230" height="30" as="geometry" />
        </mxCell>
        <mxCell id="kpZ2RrCebFpIn6AVhL3d-6" value="User wants to recall previous searches" style="text;html=1;align=center;verticalAlign=middle;resizable=0;points=[];autosize=1;strokeColor=none;fillColor=none;" vertex="1" parent="1">
          <mxGeometry x="390" y="140" width="230" height="30" as="geometry" />
        </mxCell>
        <mxCell id="kpZ2RrCebFpIn6AVhL3d-7" value="User recalls a source for citation" style="text;html=1;align=center;verticalAlign=middle;resizable=0;points=[];autosize=1;strokeColor=none;fillColor=none;" vertex="1" parent="1">
          <mxGeometry x="390" y="190" width="190" height="30" as="geometry" />
        </mxCell>
        <mxCell id="kpZ2RrCebFpIn6AVhL3d-8" value="User generates an MLA citation for a source" style="text;html=1;align=center;verticalAlign=middle;resizable=0;points=[];autosize=1;strokeColor=none;fillColor=none;" vertex="1" parent="1">
          <mxGeometry x="390" y="240" width="260" height="30" as="geometry" />
        </mxCell>
        <mxCell id="kpZ2RrCebFpIn6AVhL3d-10" value="User generates an APA citation for a source" style="text;html=1;align=center;verticalAlign=middle;resizable=0;points=[];autosize=1;strokeColor=none;fillColor=none;" vertex="1" parent="1">
          <mxGeometry x="390" y="290" width="260" height="30" as="geometry" />
        </mxCell>
        <mxCell id="kpZ2RrCebFpIn6AVhL3d-11" value="User generates a Chicago citation for a source" style="text;html=1;align=center;verticalAlign=middle;resizable=0;points=[];autosize=1;strokeColor=none;fillColor=none;" vertex="1" parent="1">
          <mxGeometry x="390" y="335" width="270" height="30" as="geometry" />
        </mxCell>
        <mxCell id="kpZ2RrCebFpIn6AVhL3d-12" value="User gets texted when there is an update to a news story" style="text;html=1;align=center;verticalAlign=middle;resizable=0;points=[];autosize=1;strokeColor=none;fillColor=none;" vertex="1" parent="1">
          <mxGeometry x="390" y="380" width="330" height="30" as="geometry" />
        </mxCell>
        <mxCell id="kpZ2RrCebFpIn6AVhL3d-13" value="User gets emailed when there is an update to a news story" style="text;html=1;align=center;verticalAlign=middle;resizable=0;points=[];autosize=1;strokeColor=none;fillColor=none;" vertex="1" parent="1">
          <mxGeometry x="390" y="425" width="340" height="30" as="geometry" />
        </mxCell>
        <mxCell id="kpZ2RrCebFpIn6AVhL3d-40" value="" style="endArrow=none;html=1;rounded=0;entryX=0.052;entryY=0.76;entryDx=0;entryDy=0;entryPerimeter=0;" edge="1" parent="1" source="kpZ2RrCebFpIn6AVhL3d-1" target="kpZ2RrCebFpIn6AVhL3d-39">
          <mxGeometry width="50" height="50" relative="1" as="geometry">
            <mxPoint x="400" y="250" as="sourcePoint" />
            <mxPoint x="340" y="130" as="targetPoint" />
          </mxGeometry>
        </mxCell>
        <mxCell id="kpZ2RrCebFpIn6AVhL3d-41" value="" style="endArrow=none;html=1;rounded=0;entryX=0;entryY=0.5;entryDx=0;entryDy=0;" edge="1" parent="1" source="kpZ2RrCebFpIn6AVhL3d-1" target="kpZ2RrCebFpIn6AVhL3d-38">
          <mxGeometry width="50" height="50" relative="1" as="geometry">
            <mxPoint x="230" y="211" as="sourcePoint" />
            <mxPoint x="350" y="140" as="targetPoint" />
          </mxGeometry>
        </mxCell>
        <mxCell id="kpZ2RrCebFpIn6AVhL3d-42" value="" style="endArrow=none;html=1;rounded=0;entryX=0;entryY=0.5;entryDx=0;entryDy=0;" edge="1" parent="1" source="kpZ2RrCebFpIn6AVhL3d-1" target="kpZ2RrCebFpIn6AVhL3d-37">
          <mxGeometry width="50" height="50" relative="1" as="geometry">
            <mxPoint x="240" y="221" as="sourcePoint" />
            <mxPoint x="360" y="150" as="targetPoint" />
          </mxGeometry>
        </mxCell>
        <mxCell id="kpZ2RrCebFpIn6AVhL3d-43" value="" style="endArrow=none;html=1;rounded=0;entryX=0;entryY=0.5;entryDx=0;entryDy=0;" edge="1" parent="1" source="kpZ2RrCebFpIn6AVhL3d-1" target="kpZ2RrCebFpIn6AVhL3d-36">
          <mxGeometry width="50" height="50" relative="1" as="geometry">
            <mxPoint x="250" y="231" as="sourcePoint" />
            <mxPoint x="370" y="160" as="targetPoint" />
          </mxGeometry>
        </mxCell>
        <mxCell id="kpZ2RrCebFpIn6AVhL3d-44" value="" style="endArrow=none;html=1;rounded=0;entryX=0;entryY=0.5;entryDx=0;entryDy=0;" edge="1" parent="1" source="kpZ2RrCebFpIn6AVhL3d-1" target="kpZ2RrCebFpIn6AVhL3d-35">
          <mxGeometry width="50" height="50" relative="1" as="geometry">
            <mxPoint x="260" y="241" as="sourcePoint" />
            <mxPoint x="380" y="170" as="targetPoint" />
          </mxGeometry>
        </mxCell>
        <mxCell id="kpZ2RrCebFpIn6AVhL3d-45" value="" style="endArrow=none;html=1;rounded=0;entryX=0;entryY=0.5;entryDx=0;entryDy=0;" edge="1" parent="1" source="kpZ2RrCebFpIn6AVhL3d-1" target="kpZ2RrCebFpIn6AVhL3d-34">
          <mxGeometry width="50" height="50" relative="1" as="geometry">
            <mxPoint x="270" y="251" as="sourcePoint" />
            <mxPoint x="390" y="180" as="targetPoint" />
          </mxGeometry>
        </mxCell>
        <mxCell id="kpZ2RrCebFpIn6AVhL3d-46" value="" style="endArrow=none;html=1;rounded=0;entryX=0;entryY=0.5;entryDx=0;entryDy=0;" edge="1" parent="1" source="kpZ2RrCebFpIn6AVhL3d-1" target="kpZ2RrCebFpIn6AVhL3d-33">
          <mxGeometry width="50" height="50" relative="1" as="geometry">
            <mxPoint x="280" y="261" as="sourcePoint" />
            <mxPoint x="400" y="190" as="targetPoint" />
          </mxGeometry>
        </mxCell>
        <mxCell id="kpZ2RrCebFpIn6AVhL3d-47" value="" style="endArrow=none;html=1;rounded=0;entryX=0;entryY=0.5;entryDx=0;entryDy=0;" edge="1" parent="1" source="kpZ2RrCebFpIn6AVhL3d-1" target="kpZ2RrCebFpIn6AVhL3d-32">
          <mxGeometry width="50" height="50" relative="1" as="geometry">
            <mxPoint x="290" y="271" as="sourcePoint" />
            <mxPoint x="410" y="200" as="targetPoint" />
          </mxGeometry>
        </mxCell>
        <mxCell id="kpZ2RrCebFpIn6AVhL3d-48" value="" style="endArrow=none;html=1;rounded=0;entryX=0;entryY=0.5;entryDx=0;entryDy=0;" edge="1" parent="1" source="kpZ2RrCebFpIn6AVhL3d-1" target="kpZ2RrCebFpIn6AVhL3d-31">
          <mxGeometry width="50" height="50" relative="1" as="geometry">
            <mxPoint x="300" y="281" as="sourcePoint" />
            <mxPoint x="420" y="210" as="targetPoint" />
          </mxGeometry>
        </mxCell>
        <mxCell id="kpZ2RrCebFpIn6AVhL3d-49" value="" style="endArrow=none;html=1;rounded=0;entryX=0;entryY=0.5;entryDx=0;entryDy=0;" edge="1" parent="1" source="kpZ2RrCebFpIn6AVhL3d-1" target="kpZ2RrCebFpIn6AVhL3d-30">
          <mxGeometry width="50" height="50" relative="1" as="geometry">
            <mxPoint x="310" y="291" as="sourcePoint" />
            <mxPoint x="430" y="220" as="targetPoint" />
          </mxGeometry>
        </mxCell>
      </root>
    </mxGraphModel>
  </diagram>
</mxfile>
